<svg width="18" height="18" viewBox="0 0 18 18" fill="none" xmlns="http://www.w3.org/2000/svg">
<path d="M8.03379 1.86509C8.29927 1.63003 8.64358 1.5 9.00048 1.5C9.35739 1.5 9.70169 1.63003 9.96718 1.86509L15.2708 6.56118C15.4215 6.69481 15.5421 6.85819 15.6247 7.04072C15.7073 7.22325 15.75 7.42085 15.75 7.62069V14.3246C15.75 14.7027 15.5976 15.0652 15.3264 15.3325C15.0551 15.5998 14.6872 15.75 14.3036 15.75H11.8929C11.5092 15.75 11.1413 15.5998 10.8701 15.3325C10.5988 15.0652 10.4464 14.7027 10.4464 14.3246V10.9988C10.4464 10.8728 10.3956 10.7519 10.3052 10.6628C10.2148 10.5737 10.0922 10.5237 9.96429 10.5237H8.03571C7.90784 10.5237 7.78521 10.5737 7.69479 10.6628C7.60437 10.7519 7.55357 10.8728 7.55357 10.9988V14.3246C7.55357 14.7027 7.40118 15.0652 7.12992 15.3325C6.85866 15.5998 6.49076 15.75 6.10714 15.75H3.69643C3.31281 15.75 2.94491 15.5998 2.67365 15.3325C2.40239 15.0652 2.25 14.7027 2.25 14.3246V7.62069C2.25 7.21684 2.42357 6.832 2.73021 6.56118L8.03379 1.86509ZM9.32207 2.57207C9.23359 2.4938 9.11889 2.45051 9 2.45051C8.88111 2.45051 8.76641 2.4938 8.67793 2.57207L3.37436 7.26816C3.32411 7.3126 3.2839 7.36694 3.25633 7.42767C3.22876 7.4884 3.21443 7.55416 3.21429 7.62069V14.3246C3.21429 14.4507 3.26508 14.5715 3.3555 14.6606C3.44592 14.7497 3.56856 14.7998 3.69643 14.7998H6.10714C6.23501 14.7998 6.35765 14.7497 6.44807 14.6606C6.53849 14.5715 6.58929 14.4507 6.58929 14.3246V10.9988C6.58929 10.6208 6.74168 10.2582 7.01293 9.99092C7.28419 9.72361 7.6521 9.57344 8.03571 9.57344H9.96429C10.3479 9.57344 10.7158 9.72361 10.9871 9.99092C11.2583 10.2582 11.4107 10.6208 11.4107 10.9988V14.3246C11.4107 14.4507 11.4615 14.5715 11.5519 14.6606C11.6423 14.7497 11.765 14.7998 11.8929 14.7998H14.3036C14.4314 14.7998 14.5541 14.7497 14.6445 14.6606C14.7349 14.5715 14.7857 14.4507 14.7857 14.3246V7.62069C14.7856 7.55416 14.7712 7.4884 14.7437 7.42767C14.7161 7.36694 14.6759 7.3126 14.6256 7.26816L9.32207 2.57207Z" fill="#051942" stroke="#051942" stroke-width="0.75"/>
</svg>
