<svg width="164" height="70" viewBox="0 0 164 70" fill="none" xmlns="http://www.w3.org/2000/svg">
<path d="M22.9547 63.4443L16.5906 58.3651L16.7944 54.2389L17.1989 51.8345L18.7749 48.721L21.1562 46.1921L23.9647 43.6591L26.4467 42.2185L26.9271 45.2596L28.0227 47.6815L31.2164 51.6486L34.5981 55.0006L37.5131 58.5579L37.9935 61.599L36.8137 63.6089L33.6459 64.7705L28.1921 65.002L22.9547 63.4443Z" fill="#FFE0AC"/>
<path d="M17.6423 23.4996C11.648 22.0252 8.47472 16.7726 7.63735 14.3307L9.34341 12.0408L11.4071 9.75813L14.1366 7.62777L16.6581 5.98583L22.0603 4.07334L26.1325 3.22041L29.9866 2.79255L35.4715 3.66055L39.1787 5.01073L40.879 6.29535L41.7855 8.42294L41.9173 10.6108L40.6673 12.1772L39.4464 13.0242L35.4838 14.1193L31.9083 14.957L26.5556 16.7315L21.4721 19.3072L18.5045 21.7359L17.6423 23.4996Z" fill="#FFC2CA"/>
<path d="M16.3615 57.8176C1.49153 42.6775 4.5618 23.2957 7.49964 15.2624L8.67373 16.827L10.6438 19.3675L14.8498 22.5213L19.5509 24.2956L23.9729 25.2054L29.8149 25.6259L35.825 25.3045L40.9322 26.0386L43.3589 28.3104L42.7859 31.0019L40.8912 33.4522L37.1293 36.2692L29.8815 40.0393L24.749 43.2077L21.8905 45.4239L18.2892 49.7093L17.0214 52.9679L16.3615 57.8176Z" fill="#6886C5"/>
<path fill-rule="evenodd" clip-rule="evenodd" d="M8.44302 14.4776C9.08475 16.7676 11.5157 20.3871 17.059 22.688C17.7363 21.3773 18.9287 20.2338 20.3185 19.2503C21.9711 18.0808 23.9936 17.0744 26.0216 16.2404C30.0741 14.5737 34.2656 13.5485 35.8524 13.2921C38.1284 12.9243 39.5009 12.2907 40.2833 11.6091C41.0367 10.9527 41.2748 10.2271 41.2435 9.51395C41.2106 8.76486 40.8742 7.97053 40.3664 7.26922C39.8576 6.56666 39.2306 6.03215 38.7179 5.77606C33.2943 3.06687 26.6428 3.28371 20.8224 5.23393C15.1036 7.1501 10.372 10.675 8.44302 14.4776ZM18.4781 23.2233C19.0107 22.2866 19.9394 21.3688 21.1778 20.4925C22.7038 19.4126 24.6137 18.4559 26.5862 17.6447C30.5348 16.0208 34.6163 15.027 36.0889 14.7891C38.5061 14.3985 40.1857 13.6951 41.2616 12.7577C42.3664 11.7951 42.7925 10.6199 42.741 9.44672C42.6911 8.30958 42.1977 7.23236 41.5757 6.37348C40.9546 5.51586 40.1518 4.80153 39.3817 4.41682C33.5031 1.48035 26.4219 1.76071 20.351 3.79487C14.3006 5.82214 9.06169 9.65839 6.97169 14.0661C3.31898 21.7695 0.177955 41.4671 16.3165 59.2871C16.3331 59.3055 16.3507 59.323 16.369 59.3396C19.2265 61.9292 21.4187 63.4631 23.4404 64.3923C25.4746 65.3272 27.2911 65.6284 29.3454 65.8195C30.6142 65.9375 32.0296 65.9096 33.3632 65.6845C34.6871 65.461 35.9885 65.0333 36.9808 64.308C37.9974 63.5649 38.7013 62.4937 38.7157 61.0682C38.7296 59.6959 38.1016 58.1229 36.7748 56.3286C36.5879 56.0413 36.2765 55.7044 35.9353 55.3586C35.6048 55.0237 35.198 54.6331 34.7514 54.2045C34.7039 54.1589 34.656 54.1129 34.6077 54.0665C33.5937 53.0928 32.3707 51.9092 31.2067 50.5913C30.0406 49.2711 28.9556 47.8402 28.208 46.3817C27.5235 45.0462 27.1453 43.7332 27.2061 42.4854C28.5879 41.6104 29.9778 40.8611 31.275 40.1902C31.6633 39.9894 32.0461 39.7943 32.4188 39.6043C33.3529 39.128 34.2235 38.6842 34.9575 38.265C36.9577 37.4165 38.9672 36.1444 40.5847 34.7247C42.193 33.3132 43.5059 31.675 43.9497 30.0818C44.1769 29.2661 44.1861 28.4224 43.8418 27.637C43.4977 26.8519 42.8428 26.2218 41.9224 25.7518C40.1191 24.8309 37.1283 24.4364 32.6676 24.7256C26.6651 25.1148 22.0197 24.4317 18.4781 23.2233ZM25.735 43.452C23.6115 44.8916 21.4692 46.5723 19.8866 48.7222C18.0764 51.1812 16.9841 54.2741 17.5696 58.3913C20.2695 60.8172 22.2771 62.1925 24.0605 63.0121C25.8752 63.8461 27.5017 64.1256 29.4827 64.3099C30.6382 64.4174 31.9237 64.3906 33.1164 64.1892C34.3188 63.9862 35.369 63.6156 36.1027 63.0793C36.812 62.5608 37.2082 61.9071 37.2168 61.0527C37.226 60.1505 36.8051 58.8956 35.5603 57.2174C35.5489 57.202 35.538 57.1862 35.5278 57.1699C35.4428 57.0351 35.2358 56.7958 34.8743 56.4295C34.5592 56.1102 34.168 55.7346 33.717 55.3016C33.6705 55.257 33.6233 55.2117 33.5756 55.1659C32.5617 54.1923 31.2983 52.9706 30.0888 51.6013C28.8814 50.2343 27.7059 48.6961 26.8772 47.0794C26.285 45.9238 25.8556 44.7 25.735 43.452ZM15.9149 56.5252C3.00983 40.9664 4.64389 24.3824 7.60001 16.4454C8.91479 19.1449 11.8788 22.3538 17.1905 24.3687C21.0524 25.8336 26.1494 26.6674 32.7635 26.2385C37.1677 25.9529 39.8178 26.3753 41.2468 27.105C41.9426 27.4603 42.3017 27.864 42.4715 28.2514C42.6412 28.6385 42.6641 29.1061 42.5068 29.6707C42.1817 30.8381 41.1328 32.2364 39.6022 33.5798C38.0922 34.9051 36.2025 36.0983 34.339 36.8834C34.3111 36.8952 34.2838 36.9087 34.2575 36.9238C33.5493 37.33 32.7153 37.7552 31.78 38.232C31.4004 38.4256 31.004 38.6277 30.5925 38.8405C29.1831 39.5694 27.631 40.4073 26.0864 41.4082C23.5932 43.0238 20.7322 45.0349 18.6843 47.8169C16.977 50.1361 15.8456 52.976 15.9149 56.5252Z" fill="#051942"/>
<path d="M54.4017 37.4123C52.7606 37.4123 51.3438 37.0361 50.1512 36.2835C48.9688 35.531 48.0566 34.4898 47.4144 33.16C46.7722 31.8302 46.4512 30.3045 46.4512 28.5829C46.4512 26.8305 46.7773 25.2945 47.4297 23.975C48.082 22.6554 49.0045 21.6297 50.1971 20.8978C51.3897 20.1556 52.7912 19.7845 54.4017 19.7845C56.0529 19.7845 57.4748 20.1607 58.6674 20.9133C59.86 21.6555 60.7723 22.6915 61.4042 24.0213C62.0464 25.3409 62.3675 26.8614 62.3675 28.5829C62.3675 30.3251 62.0464 31.8611 61.4042 33.1909C60.7621 34.5104 59.8447 35.5465 58.6521 36.299C57.4596 37.0412 56.0427 37.4123 54.4017 37.4123ZM54.4017 34.7991C56.1141 34.7991 57.3882 34.2218 58.224 33.0672C59.0598 31.9126 59.4778 30.4179 59.4778 28.5829C59.4778 26.6964 59.0548 25.1965 58.2087 24.0832C57.3627 22.9595 56.0937 22.3977 54.4017 22.3977C53.2499 22.3977 52.3019 22.6606 51.5578 23.1863C50.8138 23.7121 50.2582 24.4388 49.8913 25.3666C49.5243 26.2944 49.3409 27.3665 49.3409 28.5829C49.3409 30.4591 49.769 31.9642 50.6252 33.0981C51.4814 34.2321 52.7402 34.7991 54.4017 34.7991Z" fill="#051942"/>
<path d="M65.428 36.9484V14.2178H68.1495V36.9484H65.428Z" fill="#051942"/>
<path d="M72.4312 36.9484V14.2178H75.1528V36.9484H72.4312Z" fill="#051942"/>
<path d="M86.1619 37.4123C84.5208 37.4123 83.104 37.0361 81.9114 36.2835C80.729 35.531 79.8167 34.4898 79.1746 33.16C78.5324 31.8302 78.2114 30.3045 78.2114 28.5829C78.2114 26.8305 78.5375 25.2945 79.1899 23.975C79.8422 22.6554 80.7647 21.6297 81.9573 20.8978C83.1498 20.1556 84.5514 19.7845 86.1619 19.7845C87.8131 19.7845 89.235 20.1607 90.4276 20.9133C91.6202 21.6555 92.5325 22.6915 93.1644 24.0213C93.8066 25.3409 94.1276 26.8614 94.1276 28.5829C94.1276 30.3251 93.8066 31.8611 93.1644 33.1909C92.5223 34.5104 91.6049 35.5465 90.4123 36.299C89.2197 37.0412 87.8029 37.4123 86.1619 37.4123ZM86.1619 34.7991C87.8743 34.7991 89.1484 34.2218 89.9842 33.0672C90.82 31.9126 91.2379 30.4179 91.2379 28.5829C91.2379 26.6964 90.8149 25.1965 89.9689 24.0832C89.1229 22.9595 87.8539 22.3977 86.1619 22.3977C85.0101 22.3977 84.0621 22.6606 83.318 23.1863C82.5739 23.7121 82.0184 24.4388 81.6515 25.3666C81.2845 26.2944 81.1011 27.3665 81.1011 28.5829C81.1011 30.4591 81.5292 31.9642 82.3854 33.0981C83.2416 34.2321 84.5004 34.7991 86.1619 34.7991Z" fill="#051942"/>
<path d="M99.8017 36.9484L94.7562 20.2329L97.4624 20.2484L101.147 32.4642L104.862 20.2484H107.263L110.963 32.4642L114.663 20.2484H117.354L112.308 36.9484H110.046L106.055 24.2533L102.065 36.9484H99.8017Z" fill="#051942"/>
<path d="M61.0283 62.1139L68.3978 39.8472H72.1896L79.5591 62.1139H76.7306L69.835 41.4553H70.6912L63.8569 62.1139H61.0283ZM64.5755 56.9029V54.3206H76.012V56.9029H64.5755Z" fill="#051942"/>
<path d="M88.366 70.0001C87.4996 70.0001 86.6536 69.8661 85.828 69.5981C85.0024 69.33 84.243 68.9228 83.5499 68.3765C82.8669 67.8404 82.2961 67.1601 81.8375 66.3354L84.3296 65.0055C84.7374 65.8199 85.3133 66.4127 86.0573 66.7838C86.8116 67.1549 87.5863 67.3405 88.3813 67.3405C89.4312 67.3405 90.3027 67.1446 90.9958 66.7529C91.6889 66.3714 92.1986 65.7993 92.5248 65.0365C92.8611 64.2736 93.0242 63.3252 93.014 62.1913V57.6297H93.3351V45.4139H95.7508V62.2222C95.7508 62.6758 95.7355 63.1139 95.705 63.5366C95.6846 63.9592 95.6336 64.3767 95.5521 64.7891C95.338 65.9746 94.915 66.9487 94.2831 67.7116C93.6511 68.4847 92.8357 69.0569 91.8367 69.428C90.8378 69.8094 89.6809 70.0001 88.366 70.0001ZM88.1673 62.5778C86.6281 62.5778 85.3082 62.1913 84.2073 61.4181C83.1065 60.6347 82.2554 59.578 81.654 58.2482C81.0628 56.9184 80.7672 55.4185 80.7672 53.7484C80.7672 52.0784 81.0628 50.5785 81.654 49.2487C82.2554 47.9189 83.1065 46.8725 84.2073 46.1097C85.3082 45.3365 86.6231 44.95 88.152 44.95C89.7115 44.95 91.0213 45.3314 92.0814 46.0942C93.1414 46.8571 93.9416 47.9034 94.4818 49.2332C95.0322 50.5631 95.3074 52.0681 95.3074 53.7484C95.3074 55.4081 95.0322 56.9081 94.4818 58.2482C93.9416 59.578 93.1414 60.6347 92.0814 61.4181C91.0213 62.1913 89.7166 62.5778 88.1673 62.5778ZM88.5037 60.0574C89.6147 60.0574 90.527 59.7893 91.2405 59.2533C91.954 58.7069 92.4789 57.9595 92.8153 57.0111C93.1618 56.0524 93.3351 54.9649 93.3351 53.7484C93.3351 52.5114 93.1618 51.4238 92.8153 50.4857C92.4789 49.5373 91.9591 48.8003 91.2557 48.2745C90.5524 47.7385 89.6605 47.4704 88.5801 47.4704C87.4589 47.4704 86.5313 47.7488 85.7974 48.3055C85.0737 48.8621 84.5335 49.6147 84.1767 50.5631C83.8302 51.5115 83.6569 52.5733 83.6569 53.7484C83.6569 54.9339 83.8353 56.006 84.192 56.9648C84.5488 57.9132 85.0839 58.6657 85.7974 59.2224C86.5211 59.779 87.4232 60.0574 88.5037 60.0574Z" fill="#051942"/>
<path d="M106.564 62.5778C104.943 62.5778 103.526 62.217 102.313 61.4954C101.111 60.7635 100.173 59.7481 99.5001 58.4492C98.8274 57.14 98.491 55.6143 98.491 53.8721C98.491 52.0475 98.8223 50.4703 99.4848 49.1405C100.147 47.8003 101.07 46.7695 102.252 46.0478C103.445 45.3159 104.841 44.95 106.441 44.95C108.103 44.95 109.515 45.3365 110.677 46.1097C111.849 46.8829 112.725 47.9859 113.306 49.4188C113.898 50.8517 114.152 52.5578 114.071 54.5371H111.319V53.5474C111.288 51.496 110.875 49.9652 110.08 48.9549C109.285 47.9343 108.103 47.4241 106.533 47.4241C104.851 47.4241 103.572 47.9704 102.696 49.0631C101.819 50.1559 101.381 51.7228 101.381 53.7639C101.381 55.7329 101.819 57.2586 102.696 58.341C103.572 59.4234 104.821 59.9646 106.441 59.9646C107.532 59.9646 108.48 59.712 109.285 59.2069C110.091 58.7018 110.723 57.975 111.181 57.0266L113.796 57.9389C113.154 59.4131 112.185 60.5573 110.891 61.3717C109.606 62.1758 108.164 62.5778 106.564 62.5778ZM100.463 54.5371V52.3258H112.664V54.5371H100.463Z" fill="#051942"/>
<path d="M128.173 62.1139V53.7484C128.173 52.9547 128.102 52.1918 127.959 51.4599C127.826 50.728 127.587 50.0734 127.24 49.4961C126.904 48.9085 126.445 48.4446 125.864 48.1044C125.294 47.7642 124.57 47.5942 123.693 47.5942C123.01 47.5942 122.389 47.7127 121.828 47.9498C121.277 48.1766 120.804 48.5271 120.406 49.0013C120.008 49.4755 119.698 50.0734 119.473 50.795C119.259 51.5063 119.152 52.3465 119.152 53.3155L117.363 52.7588C117.363 51.1403 117.649 49.7538 118.22 48.5993C118.801 47.4344 119.611 46.5427 120.651 45.9241C121.7 45.2953 122.934 44.9809 124.351 44.9809C125.421 44.9809 126.333 45.151 127.087 45.4912C127.842 45.8314 128.469 46.2849 128.968 46.8519C129.468 47.4086 129.86 48.0374 130.145 48.7384C130.431 49.4291 130.63 50.1352 130.742 50.8569C130.864 51.5682 130.925 52.2434 130.925 52.8825V62.1139H128.173ZM116.4 62.1139V45.4139H118.846V49.8827H119.152V62.1139H116.4Z" fill="#051942"/>
<path d="M141.096 62.5778C139.424 62.5778 138.002 62.2016 136.83 61.449C135.668 60.6862 134.781 59.6399 134.17 58.31C133.558 56.9802 133.242 55.4648 133.222 53.7639C133.242 52.0217 133.563 50.4909 134.185 49.1714C134.817 47.8416 135.719 46.8055 136.891 46.0633C138.064 45.3211 139.475 44.95 141.126 44.95C142.869 44.95 144.368 45.3829 145.622 46.2489C146.886 47.1148 147.732 48.3003 148.16 49.8054L145.469 50.6249C145.122 49.6559 144.556 48.9034 143.772 48.3673C142.997 47.8313 142.105 47.5632 141.096 47.5632C139.965 47.5632 139.032 47.8313 138.298 48.3673C137.564 48.893 137.019 49.625 136.662 50.5631C136.305 51.4908 136.122 52.5578 136.112 53.7639C136.132 55.6195 136.555 57.1194 137.381 58.2637C138.216 59.3976 139.455 59.9646 141.096 59.9646C142.176 59.9646 143.073 59.7172 143.787 59.2224C144.5 58.7172 145.041 57.9905 145.408 57.0421L148.16 57.7688C147.589 59.3254 146.697 60.5161 145.484 61.3408C144.271 62.1655 142.808 62.5778 141.096 62.5778Z" fill="#051942"/>
<path d="M152.365 69.5362L155.56 60.7532L155.606 63.351L148.389 45.4139H151.249L156.906 59.8409H155.927L161.233 45.4139H164L155.01 69.5362H152.365Z" fill="#051942"/>
</svg>
