<svg width="38" height="38" viewBox="0 0 38 38" fill="none" xmlns="http://www.w3.org/2000/svg">
<path d="M15.1572 19.3324C15.1572 17.0228 17.0301 15.1499 19.3412 15.1499C21.6522 15.1499 23.5262 17.0228 23.5262 19.3324C23.5262 21.6421 21.6522 23.515 19.3412 23.515C17.0301 23.515 15.1572 21.6421 15.1572 19.3324ZM12.8948 19.3324C12.8948 22.8906 15.7808 25.7749 19.3412 25.7749C22.9015 25.7749 25.7875 22.8906 25.7875 19.3324C25.7875 15.7742 22.9015 12.8899 19.3412 12.8899C15.7808 12.8899 12.8948 15.7742 12.8948 19.3324ZM24.5363 12.6345C24.5361 12.9323 24.6244 13.2234 24.7898 13.471C24.9553 13.7187 25.1905 13.9118 25.4657 14.0258C25.7409 14.1399 26.0438 14.1698 26.3361 14.1119C26.6283 14.0539 26.8968 13.9106 27.1076 13.7001C27.3183 13.4896 27.4619 13.2214 27.5202 12.9294C27.5784 12.6374 27.5487 12.3346 27.4348 12.0595C27.3209 11.7843 27.1279 11.5491 26.8802 11.3836C26.6325 11.218 26.3413 11.1296 26.0434 11.1295H26.0427C25.6434 11.1297 25.2604 11.2883 24.9779 11.5705C24.6955 11.8527 24.5366 12.2353 24.5363 12.6345ZM14.2693 29.545C13.0454 29.4893 12.3801 29.2856 11.938 29.1134C11.3519 28.8854 10.9337 28.6138 10.494 28.1749C10.0543 27.7361 9.78211 27.3186 9.55493 26.7328C9.38259 26.2912 9.17871 25.6261 9.12307 24.4028C9.06221 23.0803 9.05006 22.6831 9.05006 19.3325C9.05006 15.982 9.06321 15.5858 9.12307 14.2622C9.17881 13.039 9.3842 12.3752 9.55493 11.9323C9.78311 11.3465 10.0549 10.9286 10.494 10.4891C10.9331 10.0497 11.3509 9.77769 11.938 9.55065C12.3799 9.37841 13.0454 9.17465 14.2693 9.11904C15.5926 9.05822 15.9901 9.04607 19.3412 9.04607C22.6922 9.04607 23.0901 9.05922 24.4145 9.11904C25.6385 9.17475 26.3027 9.38001 26.7459 9.55065C27.332 9.77769 27.7502 10.0503 28.1899 10.4891C28.6296 10.928 28.9008 11.3465 29.1289 11.9323C29.3013 12.3739 29.5052 13.039 29.5608 14.2622C29.6217 15.5858 29.6338 15.982 29.6338 19.3325C29.6338 22.6831 29.6217 23.0792 29.5608 24.4028C29.5051 25.6261 29.3002 26.291 29.1289 26.7328C28.9008 27.3186 28.629 27.7365 28.1899 28.1749C27.7508 28.6134 27.332 28.8854 26.7459 29.1134C26.304 29.2857 25.6385 29.4894 24.4145 29.545C23.0912 29.6058 22.6937 29.618 19.3412 29.618C15.9886 29.618 15.5922 29.6058 14.2693 29.545ZM14.1654 6.86187C12.8289 6.9227 11.9157 7.13448 11.1182 7.44463C10.2922 7.76492 9.593 8.19461 8.89429 8.8918C8.19558 9.58899 7.76673 10.2889 7.44625 11.1143C7.13591 11.9119 6.924 12.8241 6.86314 14.1597C6.80127 15.4975 6.78711 15.9252 6.78711 19.3324C6.78711 22.7397 6.80127 23.1674 6.86314 24.5051C6.924 25.8409 7.13591 26.753 7.44625 27.5505C7.76673 28.3755 8.19568 29.0762 8.89429 29.7731C9.59289 30.47 10.2922 30.899 11.1182 31.2202C11.9172 31.5304 12.8289 31.7422 14.1654 31.803C15.5047 31.8638 15.9319 31.879 19.3412 31.879C22.7505 31.879 23.1784 31.8648 24.517 31.803C25.8535 31.7422 26.7662 31.5304 27.5642 31.2202C28.3897 30.899 29.0894 30.4703 29.7881 29.7731C30.4868 29.0759 30.9147 28.3755 31.2361 27.5505C31.5465 26.753 31.7594 25.8408 31.8192 24.5051C31.8801 23.1664 31.8943 22.7397 31.8943 19.3324C31.8943 15.9252 31.8801 15.4975 31.8192 14.1597C31.7584 12.824 31.5465 11.9114 31.2361 11.1143C30.9147 10.2894 30.4857 9.59009 29.7881 8.8918C29.0905 8.19351 28.3897 7.76492 27.5652 7.44463C26.7662 7.13448 25.8534 6.92169 24.518 6.86187C23.1794 6.80104 22.7515 6.78589 19.3422 6.78589C15.9329 6.78589 15.5047 6.80004 14.1654 6.86187Z" fill="#051942"/>
<path d="M15.1572 19.3324C15.1572 17.0228 17.0301 15.1499 19.3412 15.1499C21.6522 15.1499 23.5262 17.0228 23.5262 19.3324C23.5262 21.6421 21.6522 23.5149 19.3412 23.5149C17.0301 23.5149 15.1572 21.6421 15.1572 19.3324ZM12.8948 19.3324C12.8948 22.8906 15.7808 25.7749 19.3412 25.7749C22.9015 25.7749 25.7876 22.8906 25.7876 19.3324C25.7876 15.7742 22.9015 12.8899 19.3412 12.8899C15.7808 12.8899 12.8948 15.7742 12.8948 19.3324ZM24.5363 12.6345C24.5361 12.9323 24.6244 13.2234 24.7898 13.471C24.9553 13.7187 25.1905 13.9118 25.4657 14.0258C25.7409 14.1399 26.0438 14.1698 26.3361 14.1119C26.6283 14.0539 26.8968 13.9106 27.1076 13.7001C27.3183 13.4896 27.4619 13.2214 27.5202 12.9294C27.5784 12.6374 27.5487 12.3346 27.4348 12.0595C27.3209 11.7843 27.1279 11.5491 26.8802 11.3836C26.6325 11.218 26.3413 11.1296 26.0434 11.1295C25.644 11.1297 25.2604 11.2883 24.9779 11.5705C24.6955 11.8527 24.5366 12.2353 24.5363 12.6345ZM14.2693 29.545C13.0454 29.4893 12.3801 29.2856 11.938 29.1134C11.3519 28.8854 10.9337 28.6138 10.494 28.1749C10.0543 27.7361 9.78211 27.3186 9.55493 26.7328C9.38259 26.2911 9.17871 25.6261 9.12307 24.4028C9.06221 23.0803 9.05006 22.6831 9.05006 19.3325C9.05006 15.982 9.06321 15.5858 9.12307 14.2622C9.17881 13.039 9.3842 12.3752 9.55493 11.9323C9.78311 11.3465 10.0549 10.9286 10.494 10.4891C10.9331 10.0497 11.3509 9.77769 11.938 9.55065C12.3799 9.37841 13.0454 9.17465 14.2693 9.11904C15.5926 9.05822 15.9902 9.04607 19.3412 9.04607C22.6922 9.04607 23.0901 9.05922 24.4145 9.11904C25.6385 9.17475 26.3027 9.38001 26.7459 9.55065C27.332 9.77769 27.7502 10.0503 28.1899 10.4891C28.6296 10.928 28.9008 11.3465 29.1289 11.9323C29.3013 12.3739 29.5052 13.039 29.5608 14.2622C29.6217 15.5858 29.6338 15.982 29.6338 19.3325C29.6338 22.6831 29.6217 23.0792 29.5608 24.4028C29.5051 25.6261 29.3002 26.2909 29.1289 26.7328C28.9008 27.3186 28.629 27.7365 28.1899 28.1749C27.7508 28.6134 27.332 28.8854 26.7459 29.1134C26.304 29.2857 25.6385 29.4894 24.4145 29.545C23.0912 29.6058 22.6937 29.618 19.3412 29.618C15.9886 29.618 15.5922 29.6058 14.2693 29.545ZM14.1654 6.86187C12.8289 6.9227 11.9157 7.13448 11.1182 7.44463C10.2922 7.76492 9.593 8.19461 8.89429 8.8918C8.19558 9.58899 7.76673 10.2889 7.44625 11.1143C7.13591 11.9119 6.924 12.8241 6.86314 14.1597C6.80127 15.4975 6.78711 15.9252 6.78711 19.3324C6.78711 22.7397 6.80127 23.1674 6.86314 24.5051C6.924 25.8409 7.13591 26.753 7.44625 27.5505C7.76673 28.3755 8.19568 29.0762 8.89429 29.7731C9.59289 30.4699 10.2922 30.899 11.1182 31.2202C11.9172 31.5304 12.8289 31.7422 14.1654 31.803C15.5047 31.8638 15.9319 31.879 19.3412 31.879C22.7505 31.879 23.1784 31.8648 24.517 31.803C25.8535 31.7422 26.7662 31.5304 27.5642 31.2202C28.3897 30.899 29.0894 30.4703 29.7881 29.7731C30.4868 29.0759 30.9147 28.3755 31.2361 27.5505C31.5465 26.753 31.7594 25.8408 31.8192 24.5051C31.8801 23.1664 31.8943 22.7397 31.8943 19.3324C31.8943 15.9252 31.8801 15.4975 31.8192 14.1597C31.7584 12.824 31.5465 11.9114 31.2361 11.1143C30.9147 10.2894 30.4857 9.59009 29.7881 8.8918C29.0905 8.19351 28.3897 7.76492 27.5652 7.44463C26.7662 7.13448 25.8534 6.92169 24.518 6.86187C23.1794 6.80104 22.7515 6.78589 19.3422 6.78589C15.9329 6.78589 15.5047 6.80004 14.1654 6.86187Z" fill="#051942"/>
</svg>
