<svg width="38" height="38" viewBox="0 0 38 38" fill="none" xmlns="http://www.w3.org/2000/svg">
<path d="M30.5363 12.7353V11.7705C29.3489 11.7756 28.1841 11.4441 27.1779 10.8137M30.5363 12.7353C30.4673 12.7209 30.3987 12.7054 30.3305 12.6887M30.5363 12.7353L30.5358 16.3106C28.2666 16.3146 26.0533 15.6057 24.2088 14.2839L24.2312 23.5426C24.2283 25.0606 23.8137 26.5493 23.0316 27.8502C22.2495 29.1511 21.1291 30.2156 19.7899 30.9301C18.4506 31.6446 16.9427 31.9825 15.4266 31.9077C13.9105 31.8329 12.4431 31.3483 11.1806 30.5054L11.1786 30.5033C9.60607 29.4486 8.43689 27.8926 7.86142 26.0887C7.28564 24.2838 7.33814 22.3371 8.01038 20.5658C8.68262 18.7946 9.93495 17.3033 11.5633 16.3349C13.1916 15.3665 15.0999 14.9782 16.9772 15.2332V16.2578L16.9996 16.2952C16.992 16.2954 16.9844 16.2956 16.9767 16.2958V19.8705C16.599 19.7528 16.2057 19.6923 15.81 19.691C14.9477 19.6929 14.111 19.9852 13.4352 20.5208C12.7593 21.0565 12.2836 21.8042 12.0849 22.6434C11.8861 23.4825 11.9758 24.3642 12.3396 25.1461C12.7034 25.928 13.32 26.5645 14.0899 26.953C14.6234 27.2215 15.2132 27.3594 15.8105 27.3564C16.8247 27.3584 17.7983 26.9579 18.5176 26.2428C19.2369 25.5277 19.6431 24.5565 19.6471 23.5422V5.42847H24.2092V6.01182C24.2172 6.07353 24.2291 6.1362 24.2411 6.19915C24.2624 6.31166 24.284 6.42503 24.284 6.53533C24.4393 7.41154 24.7768 8.2457 25.2755 8.98272C25.7741 9.71974 26.4223 10.3436 27.1779 10.8137M27.1779 10.8137C27.2326 10.8737 27.2885 10.9326 27.3453 10.9904" stroke="#051942" stroke-width="2.5" stroke-linejoin="round"/>
</svg>
